PathFileType	4	(X/Y/Z) shrug_0kg_1.trc																										
DataRate	CameraRate	NumFrames	NumMarkers	Units	OrigDataRate	OrigDataStartFrame	OrigNumFrames																					
100	100	44	9	mm	100	67	462																					
Frame#	Time	gu			centelbow			EpL			centpxt8			centijc7			ij			ts			aa			ai		
		X1	Y1	Z1	X2	Y2	Z2	X3	Y3	Z3	X4	Y4	Z4	X5	Y5	Z5	X6	Y6	Z6	X7	Y7	Z7	X8	Y8	Z8	X9	Y9	Z9
66	0.66	-78.576	-9.82	167.784	-103.919	-252.377	206.622	-83.248	-246.618	230.684	-46.816	-153.158	-8.669	-46.816	31.938	-8.669	0	0	0	-138.844	30.853	58.251	-104.556	28.223	172.454	-160.577	-80.164	67.662
67	0.67	-78.528	-9.939	167.768	-103.879	-252.503	206.555	-83.2	-246.752	230.612	-46.816	-153.158	-8.669	-46.816	31.938	-8.669	0	0	0	-138.758	30.834	58.309	-104.468	28.184	172.511	-160.487	-80.185	67.7
68	0.68	-78.554	-9.978	167.864	-103.878	-252.552	206.604	-83.192	-246.805	230.656	-46.816	-153.158	-8.669	-46.816	31.938	-8.669	0	0	0	-138.72	30.78	58.341	-104.419	28.121	172.539	-160.453	-80.239	67.726
69	0.69	-78.513	-9.932	168.145	-103.813	-252.511	206.872	-83.124	-246.764	230.921	-46.816	-153.158	-8.669	-46.816	31.938	-8.669	0	0	0	-138.664	30.676	58.393	-104.351	28.017	172.587	-160.426	-80.336	67.79
70	0.7	-78.397	-9.904	168.442	-103.715	-252.48	207.173	-83.024	-246.735	231.22	-46.816	-153.158	-8.669	-46.816	31.938	-8.669	0	0	0	-138.549	30.584	58.441	-104.226	27.924	172.632	-160.358	-80.418	67.853
71	0.71	-78.286	-9.954	168.525	-103.651	-252.529	207.233	-82.948	-246.792	231.273	-46.816	-153.158	-8.669	-46.816	31.938	-8.669	0	0	0	-138.448	30.541	58.393	-104.108	27.868	172.579	-160.299	-80.452	67.81
72	0.72	-78.2	-10.055	168.383	-103.601	-252.635	207.035	-82.88	-246.912	231.061	-46.816	-153.158	-8.669	-46.816	31.938	-8.669	0	0	0	-138.419	30.535	58.256	-104.051	27.837	172.433	-160.297	-80.454	67.663
73	0.73	-78.142	-10.177	168.175	-103.555	-252.764	206.771	-82.816	-247.051	230.785	-46.816	-153.158	-8.669	-46.816	31.938	-8.669	0	0	0	-138.513	30.57	58.1	-104.11	27.849	172.266	-160.39	-80.42	67.492
74	0.74	-78.115	-10.276	168.024	-103.523	-252.872	206.576	-82.773	-247.165	230.583	-46.816	-153.158	-8.669	-46.816	31.938	-8.669	0	0	0	-138.728	30.638	57.983	-104.292	27.901	172.139	-160.581	-80.358	67.36
75	0.75	-78.08	-10.318	167.957	-103.48	-252.922	206.463	-82.725	-247.22	230.467	-46.816	-153.158	-8.669	-46.816	31.938	-8.669	0	0	0	-138.893	30.701	57.95	-104.441	27.945	172.1	-160.724	-80.301	67.304
76	0.76	-78.048	-10.328	167.976	-103.437	-252.939	206.44	-82.679	-247.242	230.441	-46.816	-153.158	-8.669	-46.816	31.938	-8.669	0	0	0	-138.875	30.732	57.986	-104.437	27.959	172.14	-160.699	-80.273	67.318
77	0.77	-78.08	-10.328	168.09	-103.446	-252.945	206.536	-82.686	-247.248	230.536	-46.816	-153.158	-8.669	-46.816	31.938	-8.669	0	0	0	-138.786	30.745	58.032	-104.377	27.971	172.195	-160.609	-80.262	67.357
78	0.78	-78.156	-10.316	168.224	-103.488	-252.936	206.673	-82.73	-247.235	230.673	-46.816	-153.158	-8.669	-46.816	31.938	-8.669	0	0	0	-138.759	30.789	58.046	-104.37	28.032	172.215	-160.574	-80.218	67.381
79	0.79	-78.199	-10.306	168.223	-103.497	-252.929	206.675	-82.741	-247.225	230.677	-46.816	-153.158	-8.669	-46.816	31.938	-8.669	0	0	0	-138.782	30.868	57.993	-104.392	28.124	172.162	-160.579	-80.142	67.335
80	0.8	-78.178	-10.293	168.068	-103.443	-252.921	206.51	-82.688	-247.215	230.512	-46.816	-153.158	-8.669	-46.816	31.938	-8.669	0	0	0	-138.791	30.913	57.871	-104.387	28.163	172.036	-160.572	-80.101	67.206
81	0.81	-78.13	-10.251	167.933	-103.361	-252.886	206.347	-82.608	-247.18	230.351	-46.816	-153.158	-8.669	-46.816	31.938	-8.669	0	0	0	-138.744	30.94	57.796	-104.326	28.173	171.956	-160.52	-80.076	67.114
82	0.82	-78.121	-10.21	167.946	-103.332	-252.854	206.324	-82.583	-247.148	230.331	-46.816	-153.158	-8.669	-46.816	31.938	-8.669	0	0	0	-138.644	31.033	57.864	-104.228	28.251	172.024	-160.423	-79.984	67.169
83	0.83	-78.185	-10.242	168.012	-103.406	-252.888	206.368	-82.659	-247.185	230.377	-46.816	-153.158	-8.669	-46.816	31.938	-8.669	0	0	0	-138.539	31.149	57.958	-104.137	28.36	172.122	-160.325	-79.867	67.256
84	0.84	-78.294	-10.359	167.999	-103.544	-253	206.366	-82.796	-247.299	230.375	-46.816	-153.158	-8.669	-46.816	31.938	-8.669	0	0	0	-138.473	31.16	57.913	-104.088	28.373	172.083	-160.266	-79.854	67.211
85	0.85	-78.409	-10.484	167.942	-103.681	-253.117	206.346	-82.929	-247.415	230.351	-46.816	-153.158	-8.669	-46.816	31.938	-8.669	0	0	0	-138.497	31.058	57.762	-104.125	28.277	171.935	-160.296	-79.955	67.065
86	0.86	-78.517	-10.491	167.916	-103.774	-253.12	206.354	-83.02	-247.414	230.356	-46.816	-153.158	-8.669	-46.816	31.938	-8.669	0	0	0	-138.606	30.947	57.647	-104.241	28.17	171.823	-160.415	-80.063	66.956
87	0.87	-78.614	-10.288	167.881	-103.816	-252.922	206.327	-83.064	-247.21	230.33	-46.816	-153.158	-8.669	-46.816	31.938	-8.669	0	0	0	-138.696	30.93	57.624	-104.342	28.148	171.803	-160.523	-80.077	66.931
88	0.88	-78.696	-9.948	167.754	-103.841	-252.588	206.197	-83.096	-246.87	230.204	-46.816	-153.158	-8.669	-46.816	31.938	-8.669	0	0	0	-138.698	31.025	57.618	-104.363	28.24	171.803	-160.545	-79.979	66.925
89	0.89	-78.728	-9.673	167.57	-103.869	-252.312	206.023	-83.129	-246.591	230.035	-46.816	-153.158	-8.669	-46.816	31.938	-8.669	0	0	0	-138.663	31.167	57.56	-104.358	28.389	171.754	-160.532	-79.831	66.873
90	0.9	-78.713	-9.569	167.426	-103.883	-252.201	205.904	-83.15	-246.479	229.921	-46.816	-153.158	-8.669	-46.816	31.938	-8.669	0	0	0	-138.683	31.3	57.481	-104.425	28.536	171.69	-160.569	-79.694	66.802
91	0.91	-78.741	-9.541	167.334	-103.923	-252.165	205.853	-83.202	-246.437	229.879	-46.816	-153.158	-8.669	-46.816	31.938	-8.669	0	0	0	-138.751	31.45	57.423	-104.564	28.707	171.653	-160.644	-79.542	66.751
92	0.92	-78.858	-9.448	167.283	-104.061	-252.058	205.873	-83.361	-246.32	229.914	-46.816	-153.158	-8.669	-46.816	31.938	-8.669	0	0	0	-138.753	31.688	57.374	-104.662	28.977	171.634	-160.659	-79.3	66.717
93	0.93	-79.015	-9.285	167.298	-104.333	-251.864	206.013	-83.665	-246.115	230.08	-46.816	-153.158	-8.669	-46.816	31.938	-8.669	0	0	0	-138.659	32.021	57.285	-104.703	29.359	171.586	-160.618	-78.954	66.663
94	0.94	-79.223	-9.16	167.425	-104.778	-251.674	206.389	-84.16	-245.908	230.495	-46.816	-153.158	-8.669	-46.816	31.938	-8.669	0	0	0	-138.567	32.398	57.121	-104.815	29.818	171.484	-160.639	-78.549	66.567
95	0.95	-79.534	-9.068	167.706	-105.366	-251.479	207.126	-84.823	-245.672	231.285	-46.816	-153.158	-8.669	-46.816	31.938	-8.669	0	0	0	-138.419	32.838	56.982	-104.98	30.39	171.44	-160.649	-78.068	66.536
96	0.96	-79.879	-8.828	168.062	-105.937	-251.1	208.183	-85.49	-245.217	232.406	-46.816	-153.158	-8.669	-46.816	31.938	-8.669	0	0	0	-138.016	33.428	56.988	-105.003	31.178	171.574	-160.428	-77.429	66.693
97	0.97	-80.099	-8.289	168.344	-106.309	-250.387	209.405	-85.968	-244.397	233.691	-46.816	-153.158	-8.669	-46.816	31.938	-8.669	0	0	0	-137.381	34.259	57.084	-104.844	32.251	171.81	-160.009	-76.537	66.981
98	0.98	-80.103	-7.402	168.505	-106.393	-249.298	210.691	-86.15	-243.178	235.025	-46.816	-153.158	-8.669	-46.816	31.938	-8.669	0	0	0	-136.747	35.489	57.128	-104.664	33.73	171.986	-159.651	-75.231	67.243
99	0.99	-79.937	-6.099	168.487	-106.202	-247.788	211.858	-86.035	-241.528	236.22	-46.816	-153.158	-8.669	-46.816	31.938	-8.669	0	0	0	-136.188	37.276	56.976	-104.469	35.761	171.939	-159.423	-73.351	67.336
100	1	-79.732	-4.427	168.149	-105.858	-245.928	212.635	-85.741	-239.532	237.004	-46.816	-153.158	-8.669	-46.816	31.938	-8.669	0	0	0	-135.596	39.421	56.543	-104.096	38.169	171.569	-159.223	-71.093	67.214
101	1.01	-79.583	-2.762	167.604	-105.551	-244.09	213.108	-85.459	-237.574	237.465	-46.816	-153.158	-8.669	-46.816	31.938	-8.669	0	0	0	-135.037	41.38	56.123	-103.617	40.439	171.174	-159.157	-68.987	67.211
102	1.02	-79.517	-1.596	167.326	-105.455	-242.736	213.835	-85.37	-236.114	238.169	-46.816	-153.158	-8.669	-46.816	31.938	-8.669	0	0	0	-134.683	42.837	56.306	-103.284	42.271	171.365	-159.41	-67.343	67.915
103	1.03	-79.542	-1.028	167.608	-105.592	-241.943	215.206	-85.511	-235.219	239.516	-46.816	-153.158	-8.669	-46.816	31.938	-8.669	0	0	0	-134.417	43.951	57.115	-102.997	43.856	172.17	-159.781	-66.015	69.354
104	1.04	-79.563	-0.582	168.119	-105.656	-241.258	216.888	-85.582	-234.417	241.171	-46.816	-153.158	-8.669	-46.816	31.938	-8.669	0	0	0	-133.848	45.074	57.806	-102.303	45.581	172.825	-159.76	-64.677	70.801
105	1.05	-79.351	0.295	168.348	-105.166	-240.173	218.278	-85.1	-233.192	242.528	-46.816	-153.158	-8.669	-46.816	31.938	-8.669	0	0	0	-132.865	46.334	57.963	-101.086	47.557	172.912	-159.183	-63.216	71.812
106	1.06	-78.833	1.71	168.307	-104.002	-238.6	219.315	-83.949	-231.457	243.529	-46.816	-153.158	-8.669	-46.816	31.938	-8.669	0	0	0	-131.869	47.339	58.022	-99.819	49.328	172.885	-158.521	-62.013	72.764
107	1.07	-78.198	3.439	168.37	-102.519	-236.741	220.389	-82.487	-229.427	244.569	-46.816	-153.158	-8.669	-46.816	31.938	-8.669	0	0	0	-131.276	47.74	58.273	-98.907	50.498	173.031	-158.246	-61.409	73.92
108	1.08	-77.547	5.222	168.556	-101.036	-234.824	221.572	-81.019	-227.343	245.713	-46.816	-153.158	-8.669	-46.816	31.938	-8.669	0	0	0	-131.17	47.894	58.307	-98.36	51.418	172.919	-158.376	-61.061	74.869
109	1.09	-76.741	6.839	168.482	-99.584	-233.053	222.466	-79.559	-225.428	246.555	-46.816	-153.158	-8.669	-46.816	31.938	-8.669	0	0	0	-131.378	48.199	57.991	-98.075	52.477	172.435	-158.726	-60.581	75.447
